<?xml version="1.0" standalone="no"?><!DOCTYPE svg PUBLIC "-//W3C//DTD SVG 1.1//EN" "http://www.w3.org/Graphics/SVG/1.1/DTD/svg11.dtd"><svg t="1650339011242" class="icon" viewBox="0 0 1024 1024" version="1.1" xmlns="http://www.w3.org/2000/svg" p-id="2918" xmlns:xlink="http://www.w3.org/1999/xlink" width="16" height="16"><defs><style type="text/css">@font-face { font-family: feedback-iconfont; src: url("//at.alicdn.com/t/font_1031158_u69w8yhxdu.woff2?t=1630033759944") format("woff2"), url("//at.alicdn.com/t/font_1031158_u69w8yhxdu.woff?t=1630033759944") format("woff"), url("//at.alicdn.com/t/font_1031158_u69w8yhxdu.ttf?t=1630033759944") format("truetype"); }
</style></defs><path d="M512 512m-512 0a512 512 0 1 0 1024 0 512 512 0 1 0-1024 0Z" fill="#d81e06" p-id="2919" data-spm-anchor-id="a313x.7781069.0.i0" class="selected"></path><path d="M396.8 631.808v92.544a16.5504 16.5504 0 0 0 28.416 11.52l51.968-53.504L396.8 631.808zM372.224 585.984c-4.224 0-8.448-1.152-12.032-3.456l-109.952-69.888a22.3488 22.3488 0 0 1 2.56-39.04L682.24 272.128 388.48 579.072c-4.224 4.352-10.112 6.912-16.256 6.912z" fill="#FDEACA" p-id="2920"></path><path d="M731.776 269.696l-91.648 485.12a24.8576 24.8576 0 0 1-29.056 19.84c-3.072-0.64-6.016-1.792-8.704-3.456L398.208 642.688a25.024 25.024 0 0 1-7.808-34.432c0.768-1.28 1.792-2.56 2.816-3.584L712.064 259.84a11.648 11.648 0 0 1 16.256-0.64c2.944 2.688 4.224 6.656 3.456 10.496" fill="#FFFFFF" p-id="2921"></path></svg>